<svg xmlns="http://www.w3.org/2000/svg" width="16" height="16" viewBox="0 0 16 16">
  <!-- Folder body -->
  <path d="M1 5 C1 4.2 1.7 3.5 2.5 3.5 L5.2 3.5 L6 5 L13.5 5 C14.3 5 15 5.7 15 6.5 L15 12.5 C15 13.3 14.3 14 13.5 14 L2.5 14 C1.7 14 1 13.3 1 12.5 Z" fill="#D4A017"/>
  <!-- Folder tab shadow line -->
  <path d="M1 6.2 L15 6.2" stroke="#7A5800" stroke-width="0.6" opacity="0.6"/>
  <!-- Left curly brace { -->
  <path d="M4.5 8 C4 8 3.7 8.3 3.7 8.7 L3.7 9.2 C3.7 9.7 3.3 10 2.9 10 C3.3 10 3.7 10.3 3.7 10.8 L3.7 11.3 C3.7 11.7 4 12 4.5 12"
        stroke="#E8E8E8" stroke-width="1" fill="none" stroke-linecap="round"/>
  <!-- Arrow -->
  <path d="M6.2 10 L9.2 10" stroke="#E8E8E8" stroke-width="1.1" stroke-linecap="round"/>
  <path d="M8.1 8.9 L9.3 10 L8.1 11.1" stroke="#E8E8E8" stroke-width="1.1" fill="none" stroke-linecap="round" stroke-linejoin="round"/>
  <!-- Right curly brace } -->
  <path d="M10.8 8 C11.3 8 11.6 8.3 11.6 8.7 L11.6 9.2 C11.6 9.7 12 10 12.4 10 C12 10 11.6 10.3 11.6 10.8 L11.6 11.3 C11.6 11.7 11.3 12 10.8 12"
        stroke="#E8E8E8" stroke-width="1" fill="none" stroke-linecap="round"/>
</svg>
